<svg version="1.1" xmlns="http://www.w3.org/2000/svg" xmlns:xlink="http://www.w3.org/1999/xlink" width="464.87479" height="144.55683" viewBox="0,0,464.87479,144.55683"><g transform="translate(-7.5626,-107.72159)"><g data-paper-data="{&quot;isPaintingLayer&quot;:true}" fill-rule="nonzero" stroke="none" stroke-width="1" stroke-linecap="butt" stroke-linejoin="miter" stroke-miterlimit="10" stroke-dasharray="" stroke-dashoffset="0" style="mix-blend-mode: normal"><g><path d="M76.42351,213.98081v-89.71846h22.70844c7.83765,0 13.93223,0.98123 18.28377,2.94369c4.35154,1.95026 7.41103,5.01585 9.17845,9.19674c1.77963,4.1687 2.66943,9.5746 2.66943,16.21771v32.5634c0,6.71625 -0.8898,12.20138 -2.66943,16.45539c-1.76742,4.24183 -4.80863,7.36226 -9.1236,9.36129c-4.31497,1.98683 -10.35471,2.98026 -18.11921,2.98026zM96.2614,200.24969h3.08996c3.03511,0 5.21697,-0.44491 6.54559,-1.33471c1.32861,-0.8898 2.15749,-2.21844 2.48659,-3.98586c0.32911,-1.76742 0.49367,-3.97977 0.49367,-6.637v-39.10898c0,-2.65725 -0.20112,-4.79644 -0.60336,-6.4176c-0.40224,-1.63336 -1.26768,-2.8157 -2.5963,-3.54705c-1.32861,-0.74353 -3.47392,-1.1153 -6.43589,-1.1153h-2.98025z" fill="#004cad"/><path d="M397.74704,213.98081v-89.71846h24.70138c6.05802,0 11.29937,0.66431 15.72404,1.99294c4.43687,1.32861 7.89249,3.71161 10.3669,7.14896c2.4744,3.43735 3.71161,8.28865 3.71161,14.55388c0,3.69332 -0.29864,6.9844 -0.8959,9.87324c-0.58508,2.87665 -1.66991,5.36933 -3.25451,7.47807c-1.5846,2.09653 -3.85787,3.84569 -6.81984,5.24745l12.30498,43.42396h-20.4961l-9.85495,-40.20601h-5.64968v40.20602zM417.58493,162.36572h5.53999c2.80351,0 4.97928,-0.49976 6.52731,-1.49927c1.54803,-0.99951 2.63286,-2.43784 3.25451,-4.31497c0.63384,-1.88933 0.95076,-4.1626 0.95076,-6.81984c0,-3.83959 -0.70088,-6.82595 -2.10263,-8.95905c-1.40176,-2.1453 -3.98586,-3.21794 -7.75232,-3.21794h-6.4176z" fill="#004cad"/><path d="M221.74456,213.98081v-89.71846h30.13166c5.38761,0 9.81839,1.01779 13.29231,3.0534c3.47392,2.0234 6.05802,4.97319 7.75232,8.84935c1.70648,3.87616 2.55973,8.58728 2.55973,14.13336c0,6.93565 -1.14579,12.23185 -3.43735,15.8886c-2.29156,3.65675 -5.39371,6.18601 -9.30643,7.58777c-3.91273,1.40175 -8.30693,2.10264 -13.1826,2.10264h-7.97172v38.10338zM241.58246,162.03661h6.63701c2.43784,0 4.2845,-0.44491 5.53999,-1.33471c1.25548,-0.8898 2.08435,-2.21844 2.48659,-3.98586c0.41444,-1.76742 0.62165,-4.02243 0.62165,-6.765c0,-2.27937 -0.17064,-4.2845 -0.51195,-6.01535c-0.32911,-1.74306 -1.12141,-3.13263 -2.37689,-4.1687c-1.25548,-1.03607 -3.21185,-1.55411 -5.86908,-1.55411h-6.5273z" fill="#004cad"/><path d="M284.99028,124.26234h30.13162c5.38762,0 9.81839,1.01779 13.29231,3.0534c3.47392,2.0234 6.05802,4.97319 7.75232,8.84935c1.70648,3.87616 2.55973,8.58728 2.55973,14.13336c0,6.93565 -1.14579,12.23185 -3.43735,15.8886c-2.29156,3.65675 -5.39371,6.18601 -9.30643,7.58777c-3.91273,1.40175 -8.30693,2.10264 -13.18259,2.10264h-7.97172v38.10338h-19.83786zM304.82813,162.03661h6.63701c2.43783,0 4.2845,-0.44491 5.53999,-1.33471c1.25549,-0.8898 2.08435,-2.21844 2.48659,-3.98586c0.41444,-1.76742 0.62165,-4.02243 0.62165,-6.765c0,-2.27937 -0.17064,-4.2845 -0.51195,-6.01535c-0.32911,-1.74306 -1.1214,-3.13263 -2.37689,-4.1687c-1.25549,-1.03607 -3.21185,-1.55411 -5.86908,-1.55411h-6.5273z" fill="#004cad"/><path d="M12.57532,214.21484l17.40615,-48.28743c0,0 -5.95953,-25.89883 -17.7901,-50.09022c-2.13631,-4.36834 -4.62876,-7.85639 -4.62876,-7.85639c0,0 3.73787,-0.6365 5.89854,0.08532c0.2519,0.08415 0.98008,1.10806 1.19189,1.22669c2.18552,1.22398 1.44875,3.49321 4.42294,5.84828c6.26126,4.9579 6.47577,4.44823 13.4762,13.56788c3.16476,4.12282 9.38688,20.04999 9.38688,20.04999l7.97172,-24.26256h16.51025l-15.74232,46.62362l17.51585,43.09485h-18.61288l-10.97026,-26.80401l-9.63554,26.80401z" fill="#004cad"/><path d="M348.23594,213.98081v-89.71846h40.334v13.51171h-20.4961v22.26963h15.61434v13.73112h-15.61434v26.80401h20.71552v13.40201z" fill="#004cad"/><path d="M137.02538,213.98081v-11.95759l21.92225,-64.35888h-20.93491v-13.402h40.42542v11.18967l-22.25134,65.12679h22.47076v13.40201z" fill="#004cad"/><path d="M188.53285,213.98081v-89.71846h19.81961v89.71847z" fill="#004cad"/><path d="M82.27432,213.98081v-89.71846h22.70844c7.83765,0 13.93223,0.98123 18.28377,2.94369c4.35154,1.95026 7.41103,5.01585 9.17845,9.19674c1.77963,4.1687 2.66943,9.5746 2.66943,16.21771v32.5634c0,6.71625 -0.8898,12.20138 -2.66943,16.45539c-1.76742,4.24183 -4.80863,7.36226 -9.1236,9.36129c-4.31497,1.98683 -10.35471,2.98026 -18.11921,2.98026zM102.1122,200.24969h3.08996c3.03511,0 5.21697,-0.44491 6.54559,-1.33471c1.32861,-0.8898 2.15749,-2.21844 2.48659,-3.98586c0.32911,-1.76742 0.49367,-3.97977 0.49367,-6.637v-39.10898c0,-2.65725 -0.20112,-4.79644 -0.60336,-6.4176c-0.40224,-1.63336 -1.26768,-2.8157 -2.5963,-3.54705c-1.32861,-0.74353 -3.47392,-1.1153 -6.43589,-1.1153h-2.98025z" fill="#0096ff"/><path d="M403.59784,213.98081v-89.71846h24.70138c6.05802,0 11.29937,0.66431 15.72404,1.99294c4.43687,1.32861 7.89249,3.71161 10.3669,7.14896c2.4744,3.43735 3.71161,8.28865 3.71161,14.55388c0,3.69332 -0.29864,6.9844 -0.8959,9.87324c-0.58508,2.87665 -1.66991,5.36933 -3.25451,7.47807c-1.5846,2.09653 -3.85787,3.84569 -6.81984,5.24745l12.30498,43.42396h-20.4961l-9.85495,-40.20601h-5.64968v40.20602zM423.43574,162.36572h5.53999c2.80351,0 4.97928,-0.49976 6.52731,-1.49927c1.54803,-0.99951 2.63286,-2.43784 3.25451,-4.31497c0.63384,-1.88933 0.95076,-4.1626 0.95076,-6.81984c0,-3.83959 -0.70088,-6.82595 -2.10263,-8.95905c-1.40176,-2.1453 -3.98586,-3.21794 -7.75232,-3.21794h-6.4176z" fill="#0096ff"/><path d="M227.59537,213.98081v-89.71846h30.13166c5.38762,0 9.81839,1.01779 13.29231,3.0534c3.47392,2.0234 6.05802,4.97319 7.75232,8.84935c1.70648,3.87616 2.55973,8.58728 2.55973,14.13336c0,6.93565 -1.14579,12.23185 -3.43735,15.8886c-2.29156,3.65675 -5.39371,6.18601 -9.30643,7.58777c-3.91273,1.40175 -8.30693,2.10264 -13.18259,2.10264h-7.97172v38.10338zM247.43327,162.03661h6.63701c2.43784,0 4.2845,-0.44491 5.53999,-1.33471c1.25549,-0.8898 2.08435,-2.21844 2.48659,-3.98586c0.41444,-1.76742 0.62165,-4.02243 0.62165,-6.765c0,-2.27937 -0.17064,-4.2845 -0.51195,-6.01535c-0.32911,-1.74306 -1.1214,-3.13263 -2.37689,-4.1687c-1.25549,-1.03607 -3.21185,-1.55411 -5.8691,-1.55411h-6.5273z" fill="#0096ff"/><path d="M290.84108,124.26234h30.13162c5.38762,0 9.81839,1.01779 13.29231,3.0534c3.47392,2.0234 6.05802,4.97319 7.75232,8.84935c1.70648,3.87616 2.55973,8.58728 2.55973,14.13336c0,6.93565 -1.14579,12.23185 -3.43735,15.8886c-2.29156,3.65675 -5.39371,6.18601 -9.30643,7.58777c-3.91273,1.40175 -8.30693,2.10264 -13.18259,2.10264h-7.97172v38.10338h-19.83786zM310.67893,162.03661h6.63701c2.43783,0 4.2845,-0.44491 5.53999,-1.33471c1.25549,-0.8898 2.08435,-2.21844 2.48659,-3.98586c0.41444,-1.76742 0.62165,-4.02243 0.62165,-6.765c0,-2.27937 -0.17064,-4.2845 -0.51195,-6.01535c-0.32911,-1.74306 -1.1214,-3.13263 -2.37689,-4.1687c-1.25549,-1.03607 -3.21185,-1.55411 -5.86908,-1.55411h-6.5273z" fill="#0096ff"/><path d="M18.42613,214.21484l17.40615,-48.28743c0,0 -5.95953,-25.89883 -17.7901,-50.09022c-2.13631,-4.36834 -4.62876,-7.85639 -4.62876,-7.85639c0,0 5.7784,2.61913 11.51337,7.16029c6.26126,4.9579 6.47577,4.44823 13.4762,13.56788c3.16476,4.12282 9.38688,20.04999 9.38688,20.04999l7.97172,-24.26256h16.51025l-15.74232,46.62362l17.51585,43.09485h-18.61288l-10.97026,-26.80401l-9.63554,26.80401z" fill="#0096ff"/><path d="M354.08675,213.98081v-89.71846h40.334v13.51171h-20.4961v22.26963h15.61434v13.73112h-15.61434v26.80401h20.71552v13.40201z" fill="#0096ff"/><path d="M142.87619,213.98081v-11.95759l21.92225,-64.35888h-20.93491v-13.402h40.42542v11.18967l-22.25134,65.12679h22.47076v13.40201z" fill="#0096ff"/><path d="M194.38365,213.98081v-89.71846h19.81961v89.71847z" fill="#0096ff"/><path d="M461.87572,244.42203c1.00998,2.06523 3.75729,3.41851 5.99381,4.79345c2.49414,1.53331 4.44075,2.97292 4.44075,2.97292c0,0 -5.53578,-1.64022 -10.39667,-3.5562c-3.06118,-1.2066 -5.77324,-2.60404 -6.92249,-3.51406c-6.26126,-4.9579 -6.47577,-4.44822 -13.4762,-13.56788c-1.74169,-2.26895 -4.6288,-8.03999 -6.67574,-12.83702c-0.86147,-2.01886 -1.22936,-3.45319 -1.75564,-4.75654c1.58548,0.03866 3.2399,-0.08591 4.80655,-0.1048c3.95351,-0.04766 7.78884,-0.08339 11.79077,0.00984c2.92435,8.95144 6.99182,19.921 12.19487,30.5603z" data-paper-data="{&quot;index&quot;:null}" fill="#004cad"/><path d="M467.80864,244.42203c2.13631,4.36834 4.62876,7.85638 4.62876,7.85638c0,0 -5.7784,-2.61911 -11.51337,-7.16028c-6.26126,-4.9579 -6.47577,-4.44822 -13.4762,-13.56788c-2.21058,-2.87978 -5.85794,-11.13504 -7.86696,-15.99261c-0.17214,-0.41624 -0.32404,-0.80753 -0.46479,-1.16836c-0.07756,-0.19882 -0.1312,-0.38839 -0.20351,-0.56779c0.01648,0.00047 5.60628,-1.25847 11.04954,-1.26842c3.70771,-0.00678 7.17858,1.21731 9.43407,1.26659c2.92744,8.9755 3.18379,19.91067 8.41245,30.60235z" data-paper-data="{&quot;index&quot;:null}" fill="#0096ff"/></g></g></g></svg>